<svg width="20" height="20" viewBox="0 0 20 20" fill="none" xmlns="http://www.w3.org/2000/svg">
<mask id="path-1-inside-1_2_2467" fill="white">
<path fill-rule="evenodd" clip-rule="evenodd" d="M10 17.087C14.9706 17.087 19 13.9335 19 10.0435C19 6.15347 14.9706 3 10 3C5.02944 3 1 6.15347 1 10.0435C1 12.2006 2.23907 14.1312 4.19059 15.4233L3.34784 17.8696L7.12652 16.7203C8.02888 16.9581 8.99521 17.087 10 17.087Z"/>
</mask>
<path d="M4.19059 15.4233L5.60879 15.9118L5.9871 14.8137L5.01864 14.1725L4.19059 15.4233ZM3.34784 17.8696L1.92964 17.381L0.972317 20.1599L3.78431 19.3047L3.34784 17.8696ZM7.12652 16.7203L7.50871 15.2698L7.0972 15.1614L6.69006 15.2852L7.12652 16.7203ZM17.5 10.0435C17.5 12.7835 14.5053 15.587 10 15.587V18.587C15.4358 18.587 20.5 15.0835 20.5 10.0435H17.5ZM10 4.5C14.5053 4.5 17.5 7.30349 17.5 10.0435H20.5C20.5 5.00345 15.4358 1.5 10 1.5V4.5ZM2.5 10.0435C2.5 7.30349 5.49467 4.5 10 4.5V1.5C4.5642 1.5 -0.5 5.00345 -0.5 10.0435H2.5ZM5.01864 14.1725C3.38403 13.0903 2.5 11.5855 2.5 10.0435H-0.5C-0.5 12.8157 1.09411 15.1722 3.36254 16.674L5.01864 14.1725ZM4.76605 18.3581L5.60879 15.9118L2.77239 14.9347L1.92964 17.381L4.76605 18.3581ZM6.69006 15.2852L2.91138 16.4345L3.78431 19.3047L7.56298 18.1554L6.69006 15.2852ZM10 15.587C9.12323 15.587 8.28539 15.4745 7.50871 15.2698L6.74434 18.1708C7.77238 18.4417 8.8672 18.587 10 18.587V15.587Z" fill="#485273" mask="url(#path-1-inside-1_2_2467)"/>
<circle cx="6" cy="10" r="1" fill="#485273"/>
<circle cx="10" cy="10" r="1" fill="#485273"/>
<circle cx="14" cy="10" r="1" fill="#485273"/>
</svg>
